<svg viewBox="0 20 100 60" xmlns="http://www.w3.org/2000/svg">
    <!-- Flamme -->
    <g id="flame">
        <path d="M 0 50 Q 20 35 30 50" fill="red"/>
        <path d="M 0 50 Q 20 65 30 50" fill="red"/>

        <path d="M 5 50 Q 20 40 25 50" fill="orange"/>
        <path d="M 5 50 Q 20 60 25 50" fill="orange"/>

        <path d="M 10 50 Q 20 45 25 50" fill="yellow"/>
        <path d="M 10 50 Q 20 55 25 50" fill="yellow"/>
    </g>
    <!-- Flügel -->
    <g fill="#1e45bc">
        <polygon points="65,50 45,22.5 20,20 30,50"/>
        <polygon points="65,50 45,77.5 20,80 30,50"/>
    </g>
    <!-- Rumpfform -->
    <mask id="rumpf">
        <rect width="100" height="100" fill="black"/>
        <ellipse cx="50" cy="50" rx="50" ry="12" fill="white"/>
    </mask>
    <!-- Rumpf und Fenster -->
    <rect x="45" width="40" height="100" fill="white" mask="url(#rumpf)"/>
    <g fill="#4169e1">
        <rect x="20" width="25" height="100" mask="url(#rumpf)"/>
        <rect x="85" width="15" height="100" mask="url(#rumpf)"/>
        <circle cx="70" cy="50" r="6" stroke="black" stroke-width="0.5"/>
    </g>
</svg>